<mxfile host="app.diagrams.net" modified="2023-10-13T10:32:28.772Z" agent="Mozilla/5.0 (Windows NT 10.0; Win64; x64) AppleWebKit/537.36 (KHTML, like Gecko) Chrome/117.0.0.0 Safari/537.36" etag="wV26IocJ52-TsM3AR96H" version="22.0.4" type="github">
  <diagram name="Страница — 1" id="UrEZ6tEzdypXz4cfXziD">
    <mxGraphModel dx="1506" dy="586" grid="1" gridSize="10" guides="1" tooltips="1" connect="1" arrows="1" fold="1" page="0" pageScale="1" pageWidth="827" pageHeight="1169" math="0" shadow="0">
      <root>
        <mxCell id="0" />
        <mxCell id="1" parent="0" />
        <mxCell id="XmDp-VsO-evtBJLwXCZc-1" value="&lt;font style=&quot;vertical-align: inherit; font-size: 16px;&quot;&gt;&lt;font style=&quot;vertical-align: inherit; font-size: 16px;&quot;&gt;&lt;font style=&quot;vertical-align: inherit;&quot;&gt;&lt;font style=&quot;vertical-align: inherit;&quot;&gt;Разработать встраиваемый модуль для умной парковки ТЦ с использованием IoT&lt;/font&gt;&lt;/font&gt;&lt;/font&gt;&lt;/font&gt;" style="rounded=0;whiteSpace=wrap;html=1;fontSize=16;" parent="1" vertex="1">
          <mxGeometry x="190" y="20" width="350" height="60" as="geometry" />
        </mxCell>
        <mxCell id="XmDp-VsO-evtBJLwXCZc-2" value="&lt;font style=&quot;vertical-align: inherit; font-size: 14px;&quot;&gt;&lt;font style=&quot;vertical-align: inherit; font-size: 14px;&quot;&gt;Этап 1. MVP&lt;/font&gt;&lt;/font&gt;" style="rounded=0;whiteSpace=wrap;html=1;fontSize=14;" parent="1" vertex="1">
          <mxGeometry x="-40" y="120" width="140" height="40" as="geometry" />
        </mxCell>
        <mxCell id="XmDp-VsO-evtBJLwXCZc-3" value="&lt;font style=&quot;vertical-align: inherit; font-size: 14px;&quot;&gt;&lt;font style=&quot;vertical-align: inherit; font-size: 14px;&quot;&gt;Этап 2. Разработка&lt;/font&gt;&lt;/font&gt;" style="rounded=0;whiteSpace=wrap;html=1;fontSize=14;" parent="1" vertex="1">
          <mxGeometry x="300" y="120" width="150" height="40" as="geometry" />
        </mxCell>
        <mxCell id="XmDp-VsO-evtBJLwXCZc-4" value="&lt;font style=&quot;vertical-align: inherit; font-size: 14px;&quot;&gt;&lt;font style=&quot;vertical-align: inherit; font-size: 14px;&quot;&gt;&lt;font style=&quot;vertical-align: inherit; font-size: 14px;&quot;&gt;&lt;font style=&quot;vertical-align: inherit; font-size: 14px;&quot;&gt;Этап 3. Испытания&lt;/font&gt;&lt;/font&gt;&lt;/font&gt;&lt;/font&gt;" style="rounded=0;whiteSpace=wrap;html=1;fontSize=14;" parent="1" vertex="1">
          <mxGeometry x="670" y="120" width="140" height="40" as="geometry" />
        </mxCell>
        <mxCell id="XmDp-VsO-evtBJLwXCZc-5" value="" style="endArrow=none;html=1;rounded=0;" parent="1" edge="1">
          <mxGeometry width="50" height="50" relative="1" as="geometry">
            <mxPoint x="30" y="100" as="sourcePoint" />
            <mxPoint x="600" y="100" as="targetPoint" />
          </mxGeometry>
        </mxCell>
        <mxCell id="XmDp-VsO-evtBJLwXCZc-6" value="" style="endArrow=none;html=1;rounded=0;exitX=0.5;exitY=0;exitDx=0;exitDy=0;" parent="1" source="XmDp-VsO-evtBJLwXCZc-3" edge="1">
          <mxGeometry width="50" height="50" relative="1" as="geometry">
            <mxPoint x="320" y="130" as="sourcePoint" />
            <mxPoint x="375" y="80" as="targetPoint" />
          </mxGeometry>
        </mxCell>
        <mxCell id="XmDp-VsO-evtBJLwXCZc-7" value="" style="endArrow=none;html=1;rounded=0;exitX=0.5;exitY=0;exitDx=0;exitDy=0;" parent="1" source="XmDp-VsO-evtBJLwXCZc-2" edge="1">
          <mxGeometry width="50" height="50" relative="1" as="geometry">
            <mxPoint x="70" y="150" as="sourcePoint" />
            <mxPoint x="30" y="100" as="targetPoint" />
          </mxGeometry>
        </mxCell>
        <mxCell id="XmDp-VsO-evtBJLwXCZc-8" value="" style="endArrow=none;html=1;rounded=0;entryX=0.5;entryY=0;entryDx=0;entryDy=0;" parent="1" target="XmDp-VsO-evtBJLwXCZc-4" edge="1">
          <mxGeometry width="50" height="50" relative="1" as="geometry">
            <mxPoint x="600" y="100" as="sourcePoint" />
            <mxPoint x="600" y="115" as="targetPoint" />
            <Array as="points">
              <mxPoint x="740" y="100" />
            </Array>
          </mxGeometry>
        </mxCell>
        <mxCell id="XmDp-VsO-evtBJLwXCZc-9" value="&lt;font style=&quot;vertical-align: inherit;&quot;&gt;&lt;font style=&quot;vertical-align: inherit;&quot;&gt;Определение требований и анализ&lt;/font&gt;&lt;/font&gt;" style="rounded=0;whiteSpace=wrap;html=1;" parent="1" vertex="1">
          <mxGeometry x="-190" y="190" width="100" height="50" as="geometry" />
        </mxCell>
        <mxCell id="XmDp-VsO-evtBJLwXCZc-11" value="&lt;font style=&quot;vertical-align: inherit;&quot;&gt;&lt;font style=&quot;vertical-align: inherit;&quot;&gt;&lt;font style=&quot;vertical-align: inherit;&quot;&gt;&lt;font style=&quot;vertical-align: inherit;&quot;&gt;Проектирование&lt;/font&gt;&lt;/font&gt;&lt;/font&gt;&lt;/font&gt;" style="rounded=0;whiteSpace=wrap;html=1;" parent="1" vertex="1">
          <mxGeometry x="-80" y="190" width="100" height="50" as="geometry" />
        </mxCell>
        <mxCell id="XmDp-VsO-evtBJLwXCZc-12" value="&lt;font style=&quot;vertical-align: inherit;&quot;&gt;&lt;font style=&quot;vertical-align: inherit;&quot;&gt;&lt;font style=&quot;vertical-align: inherit;&quot;&gt;&lt;font style=&quot;vertical-align: inherit;&quot;&gt;&lt;font style=&quot;vertical-align: inherit;&quot;&gt;&lt;font style=&quot;vertical-align: inherit;&quot;&gt;Разработка MVP&lt;/font&gt;&lt;/font&gt;&lt;/font&gt;&lt;/font&gt;&lt;/font&gt;&lt;/font&gt;" style="rounded=0;whiteSpace=wrap;html=1;" parent="1" vertex="1">
          <mxGeometry x="30" y="190" width="100" height="50" as="geometry" />
        </mxCell>
        <mxCell id="XmDp-VsO-evtBJLwXCZc-13" value="&lt;font style=&quot;vertical-align: inherit;&quot;&gt;&lt;font style=&quot;vertical-align: inherit;&quot;&gt;Тестирование MVP&lt;/font&gt;&lt;/font&gt;" style="rounded=0;whiteSpace=wrap;html=1;" parent="1" vertex="1">
          <mxGeometry x="140" y="190" width="100" height="50" as="geometry" />
        </mxCell>
        <mxCell id="XmDp-VsO-evtBJLwXCZc-14" value="&lt;font style=&quot;vertical-align: inherit;&quot;&gt;&lt;font style=&quot;vertical-align: inherit;&quot;&gt;Разработка изделия&lt;/font&gt;&lt;/font&gt;" style="rounded=0;whiteSpace=wrap;html=1;" parent="1" vertex="1">
          <mxGeometry x="270" y="190" width="100" height="50" as="geometry" />
        </mxCell>
        <mxCell id="XmDp-VsO-evtBJLwXCZc-15" value="&lt;font style=&quot;vertical-align: inherit;&quot;&gt;&lt;font style=&quot;vertical-align: inherit;&quot;&gt;&lt;font style=&quot;vertical-align: inherit;&quot;&gt;&lt;font style=&quot;vertical-align: inherit;&quot;&gt;Тестирование и сборка&lt;/font&gt;&lt;/font&gt;&lt;/font&gt;&lt;/font&gt;" style="rounded=0;whiteSpace=wrap;html=1;" parent="1" vertex="1">
          <mxGeometry x="380" y="190" width="100" height="50" as="geometry" />
        </mxCell>
        <mxCell id="XmDp-VsO-evtBJLwXCZc-16" value="&lt;font style=&quot;vertical-align: inherit;&quot;&gt;&lt;font style=&quot;vertical-align: inherit;&quot;&gt;&lt;font style=&quot;vertical-align: inherit;&quot;&gt;&lt;font style=&quot;vertical-align: inherit;&quot;&gt;Испытания&lt;/font&gt;&lt;/font&gt;&lt;/font&gt;&lt;/font&gt;" style="rounded=0;whiteSpace=wrap;html=1;" parent="1" vertex="1">
          <mxGeometry x="510" y="190" width="100" height="50" as="geometry" />
        </mxCell>
        <mxCell id="XmDp-VsO-evtBJLwXCZc-17" value="&lt;font style=&quot;vertical-align: inherit;&quot;&gt;&lt;font style=&quot;vertical-align: inherit;&quot;&gt;&lt;font style=&quot;vertical-align: inherit;&quot;&gt;&lt;font style=&quot;vertical-align: inherit;&quot;&gt;&lt;font style=&quot;vertical-align: inherit;&quot;&gt;&lt;font style=&quot;vertical-align: inherit;&quot;&gt;Доработка&lt;/font&gt;&lt;/font&gt;&lt;/font&gt;&lt;/font&gt;&lt;/font&gt;&lt;/font&gt;" style="rounded=0;whiteSpace=wrap;html=1;" parent="1" vertex="1">
          <mxGeometry x="620" y="190" width="100" height="50" as="geometry" />
        </mxCell>
        <mxCell id="XmDp-VsO-evtBJLwXCZc-18" value="&lt;font style=&quot;vertical-align: inherit;&quot;&gt;&lt;font style=&quot;vertical-align: inherit;&quot;&gt;&lt;font style=&quot;vertical-align: inherit;&quot;&gt;&lt;font style=&quot;vertical-align: inherit;&quot;&gt;&lt;font style=&quot;vertical-align: inherit;&quot;&gt;&lt;font style=&quot;vertical-align: inherit;&quot;&gt;&lt;font style=&quot;vertical-align: inherit;&quot;&gt;&lt;font style=&quot;vertical-align: inherit;&quot;&gt;Сдаточные испытания&lt;/font&gt;&lt;/font&gt;&lt;/font&gt;&lt;/font&gt;&lt;/font&gt;&lt;/font&gt;&lt;/font&gt;&lt;/font&gt;" style="rounded=0;whiteSpace=wrap;html=1;" parent="1" vertex="1">
          <mxGeometry x="730" y="190" width="100" height="50" as="geometry" />
        </mxCell>
        <mxCell id="XmDp-VsO-evtBJLwXCZc-19" value="&lt;font style=&quot;vertical-align: inherit;&quot;&gt;&lt;font style=&quot;vertical-align: inherit;&quot;&gt;&lt;font style=&quot;vertical-align: inherit;&quot;&gt;&lt;font style=&quot;vertical-align: inherit;&quot;&gt;&lt;font style=&quot;vertical-align: inherit;&quot;&gt;&lt;font style=&quot;vertical-align: inherit;&quot;&gt;&lt;font style=&quot;vertical-align: inherit;&quot;&gt;&lt;font style=&quot;vertical-align: inherit;&quot;&gt;&lt;font style=&quot;vertical-align: inherit;&quot;&gt;&lt;font style=&quot;vertical-align: inherit;&quot;&gt;Сертификация&lt;/font&gt;&lt;/font&gt;&lt;/font&gt;&lt;/font&gt;&lt;/font&gt;&lt;/font&gt;&lt;/font&gt;&lt;/font&gt;&lt;/font&gt;&lt;/font&gt;" style="rounded=0;whiteSpace=wrap;html=1;" parent="1" vertex="1">
          <mxGeometry x="840" y="190" width="100" height="50" as="geometry" />
        </mxCell>
        <mxCell id="XmDp-VsO-evtBJLwXCZc-27" value="" style="rounded=0;whiteSpace=wrap;html=1;" parent="1" vertex="1">
          <mxGeometry x="-190" y="260" width="100" height="180" as="geometry" />
        </mxCell>
        <mxCell id="XmDp-VsO-evtBJLwXCZc-25" value="&lt;ul style=&quot;font-size: 10px;&quot;&gt;&lt;li style=&quot;font-size: 10px;&quot;&gt;Сбор и анализ требований&lt;/li&gt;&lt;li style=&quot;font-size: 10px;&quot;&gt;Оценка бизнес-целей проекта&lt;/li&gt;&lt;li style=&quot;font-size: 10px;&quot;&gt;Анализ конкурентов и исследование рынка&lt;/li&gt;&lt;li style=&quot;font-size: 10px;&quot;&gt;Определение ключевых функциональных требований&lt;/li&gt;&lt;/ul&gt;" style="text;strokeColor=none;fillColor=none;html=1;whiteSpace=wrap;verticalAlign=middle;overflow=hidden;fontSize=10;align=left;" parent="1" vertex="1">
          <mxGeometry x="-220" y="260" width="130" height="160" as="geometry" />
        </mxCell>
        <mxCell id="XmDp-VsO-evtBJLwXCZc-28" value="" style="rounded=0;whiteSpace=wrap;html=1;" parent="1" vertex="1">
          <mxGeometry x="-80" y="260" width="100" height="180" as="geometry" />
        </mxCell>
        <mxCell id="XmDp-VsO-evtBJLwXCZc-29" value="&lt;ul style=&quot;font-size: 10px;&quot;&gt;&lt;li style=&quot;font-size: 10px;&quot;&gt;&lt;font style=&quot;vertical-align: inherit;&quot;&gt;&lt;font style=&quot;vertical-align: inherit;&quot;&gt;Проектирование архитектуры системы&lt;/font&gt;&lt;/font&gt;&lt;/li&gt;&lt;li style=&quot;font-size: 10px;&quot;&gt;&lt;font style=&quot;vertical-align: inherit;&quot;&gt;&lt;font style=&quot;vertical-align: inherit;&quot;&gt;Схемотехника&lt;/font&gt;&lt;/font&gt;&lt;/li&gt;&lt;li style=&quot;font-size: 10px;&quot;&gt;&lt;font style=&quot;vertical-align: inherit;&quot;&gt;&lt;font style=&quot;vertical-align: inherit;&quot;&gt;Выбор оборудования&lt;/font&gt;&lt;/font&gt;&lt;/li&gt;&lt;li style=&quot;font-size: 10px;&quot;&gt;&lt;font style=&quot;vertical-align: inherit;&quot;&gt;&lt;font style=&quot;vertical-align: inherit;&quot;&gt;Разработка ТЗ&lt;/font&gt;&lt;/font&gt;&lt;/li&gt;&lt;/ul&gt;" style="text;strokeColor=none;fillColor=none;html=1;whiteSpace=wrap;verticalAlign=middle;overflow=hidden;fontSize=10;align=left;" parent="1" vertex="1">
          <mxGeometry x="-110" y="260" width="130" height="140" as="geometry" />
        </mxCell>
        <mxCell id="XmDp-VsO-evtBJLwXCZc-32" value="" style="rounded=0;whiteSpace=wrap;html=1;" parent="1" vertex="1">
          <mxGeometry x="30" y="260" width="100" height="180" as="geometry" />
        </mxCell>
        <mxCell id="XmDp-VsO-evtBJLwXCZc-30" value="&lt;div&gt;&lt;br&gt;&lt;/div&gt;&lt;ul style=&quot;font-size: 10px;&quot;&gt;&lt;li style=&quot;font-size: 10px;&quot;&gt;&lt;font style=&quot;vertical-align: inherit;&quot;&gt;&lt;font style=&quot;vertical-align: inherit;&quot;&gt;Разработка корпуса&lt;/font&gt;&lt;/font&gt;&lt;/li&gt;&lt;li style=&quot;font-size: 10px;&quot;&gt;&lt;font style=&quot;vertical-align: inherit;&quot;&gt;&lt;font style=&quot;vertical-align: inherit;&quot;&gt;Сборка/монтаж&lt;/font&gt;&lt;/font&gt;&lt;/li&gt;&lt;li style=&quot;font-size: 10px;&quot;&gt;&lt;font style=&quot;vertical-align: inherit;&quot;&gt;&lt;font style=&quot;vertical-align: inherit;&quot;&gt;Разработка ПО для сбора данных с датчиков&lt;/font&gt;&lt;/font&gt;&lt;/li&gt;&lt;li style=&quot;font-size: 10px;&quot;&gt;&lt;font style=&quot;vertical-align: inherit;&quot;&gt;&lt;font style=&quot;vertical-align: inherit;&quot;&gt;Разработка алгоритмов обнаружения и исследования&lt;/font&gt;&lt;/font&gt;&lt;/li&gt;&lt;li style=&quot;font-size: 10px;&quot;&gt;&lt;font style=&quot;vertical-align: inherit;&quot;&gt;&lt;font style=&quot;vertical-align: inherit;&quot;&gt;Создание прототипа&lt;/font&gt;&lt;/font&gt;&lt;/li&gt;&lt;/ul&gt;" style="text;strokeColor=none;fillColor=none;html=1;whiteSpace=wrap;verticalAlign=middle;overflow=hidden;fontSize=10;align=left;" parent="1" vertex="1">
          <mxGeometry y="250" width="130" height="170" as="geometry" />
        </mxCell>
        <mxCell id="XmDp-VsO-evtBJLwXCZc-33" value="" style="rounded=0;whiteSpace=wrap;html=1;" parent="1" vertex="1">
          <mxGeometry x="140" y="260" width="108" height="180" as="geometry" />
        </mxCell>
        <mxCell id="XmDp-VsO-evtBJLwXCZc-35" value="&lt;div&gt;&lt;br&gt;&lt;/div&gt;&lt;ul style=&quot;font-size: 10px;&quot;&gt;&lt;li style=&quot;font-size: 10px;&quot;&gt;Тестирование и отладка MVP&lt;/li&gt;&lt;li style=&quot;font-size: 10px;&quot;&gt;Проведение тестового запуска системы&lt;/li&gt;&lt;li style=&quot;font-size: 10px;&quot;&gt;Оценка производительности и надежности&lt;/li&gt;&lt;li style=&quot;font-size: 10px;&quot;&gt;Исправление ошибок&lt;/li&gt;&lt;/ul&gt;" style="text;strokeColor=none;fillColor=none;html=1;whiteSpace=wrap;verticalAlign=middle;overflow=hidden;fontSize=10;align=left;" parent="1" vertex="1">
          <mxGeometry x="110" y="250" width="140" height="150" as="geometry" />
        </mxCell>
        <mxCell id="XmDp-VsO-evtBJLwXCZc-36" value="" style="rounded=0;whiteSpace=wrap;html=1;" parent="1" vertex="1">
          <mxGeometry x="270" y="260" width="100" height="180" as="geometry" />
        </mxCell>
        <mxCell id="XmDp-VsO-evtBJLwXCZc-37" value="&lt;div&gt;&lt;br&gt;&lt;/div&gt;&lt;ul style=&quot;font-size: 10px;&quot;&gt;&lt;li style=&quot;font-size: 10px;&quot;&gt;Разработка конструкторской документации&lt;/li&gt;&lt;li style=&quot;font-size: 10px;&quot;&gt;Разработка ПО для управления системой&lt;/li&gt;&lt;li style=&quot;font-size: 10px;&quot;&gt;Изготовление печатных плат&lt;/li&gt;&lt;li style=&quot;font-size: 10px;&quot;&gt;Разработка и производство дизайна корпуса&lt;/li&gt;&lt;li style=&quot;font-size: 10px;&quot;&gt;Упаковка&lt;/li&gt;&lt;/ul&gt;" style="text;strokeColor=none;fillColor=none;html=1;whiteSpace=wrap;verticalAlign=middle;overflow=hidden;fontSize=10;align=left;" parent="1" vertex="1">
          <mxGeometry x="248" y="240" width="130" height="190" as="geometry" />
        </mxCell>
        <mxCell id="XmDp-VsO-evtBJLwXCZc-38" value="" style="rounded=0;whiteSpace=wrap;html=1;" parent="1" vertex="1">
          <mxGeometry x="380" y="260" width="100" height="180" as="geometry" />
        </mxCell>
        <mxCell id="XmDp-VsO-evtBJLwXCZc-40" value="&lt;ul style=&quot;font-size: 10px;&quot;&gt;&lt;li style=&quot;font-size: 10px;&quot;&gt;Тестирование каждой компоненты системы (датчики, камеры, серверы)&lt;/li&gt;&lt;li style=&quot;font-size: 10px;&quot;&gt;Сборка конечных устройств&lt;/li&gt;&lt;li style=&quot;font-size: 10px;&quot;&gt;Тестирование устройств в составе системы&lt;/li&gt;&lt;li style=&quot;font-size: 10px;&quot;&gt;Подготовка к серийному производству&lt;/li&gt;&lt;/ul&gt;" style="text;strokeColor=none;fillColor=none;html=1;whiteSpace=wrap;verticalAlign=middle;overflow=hidden;fontSize=10;align=left;" parent="1" vertex="1">
          <mxGeometry x="350" y="250" width="130" height="190" as="geometry" />
        </mxCell>
        <mxCell id="XmDp-VsO-evtBJLwXCZc-42" value="" style="rounded=0;whiteSpace=wrap;html=1;" parent="1" vertex="1">
          <mxGeometry x="510" y="260" width="102" height="180" as="geometry" />
        </mxCell>
        <mxCell id="XmDp-VsO-evtBJLwXCZc-43" value="" style="rounded=0;whiteSpace=wrap;html=1;" parent="1" vertex="1">
          <mxGeometry x="620" y="260" width="100" height="180" as="geometry" />
        </mxCell>
        <mxCell id="XmDp-VsO-evtBJLwXCZc-44" value="" style="rounded=0;whiteSpace=wrap;html=1;" parent="1" vertex="1">
          <mxGeometry x="730" y="260" width="100" height="180" as="geometry" />
        </mxCell>
        <mxCell id="XmDp-VsO-evtBJLwXCZc-45" value="" style="rounded=0;whiteSpace=wrap;html=1;" parent="1" vertex="1">
          <mxGeometry x="840" y="260" width="100" height="180" as="geometry" />
        </mxCell>
        <mxCell id="XmDp-VsO-evtBJLwXCZc-41" value="&lt;ul style=&quot;font-size: 10px;&quot;&gt;&lt;li style=&quot;font-size: 10px;&quot;&gt;Функциональные и нагрузочные испытания&lt;/li&gt;&lt;li style=&quot;font-size: 10px;&quot;&gt;Тестирование работоспособности датчиков обнаружения занятости места&lt;/li&gt;&lt;li style=&quot;font-size: 10px;&quot;&gt;Тестирование точности распознавания и детекции с камер видеонаблюдения&lt;/li&gt;&lt;/ul&gt;" style="text;strokeColor=none;fillColor=none;html=1;whiteSpace=wrap;verticalAlign=middle;overflow=hidden;fontSize=10;align=left;" parent="1" vertex="1">
          <mxGeometry x="480" y="250" width="130" height="200" as="geometry" />
        </mxCell>
        <mxCell id="XmDp-VsO-evtBJLwXCZc-48" value="&lt;ul style=&quot;font-size: 10px;&quot;&gt;&lt;li style=&quot;font-size: 10px;&quot;&gt;Анализ результатов испытаний&lt;/li&gt;&lt;li style=&quot;font-size: 10px;&quot;&gt;Доработка конструкции и ПО&lt;/li&gt;&lt;li style=&quot;font-size: 10px;&quot;&gt;Обновление ТЗ&lt;/li&gt;&lt;/ul&gt;" style="text;strokeColor=none;fillColor=none;html=1;whiteSpace=wrap;verticalAlign=middle;overflow=hidden;fontSize=10;align=left;" parent="1" vertex="1">
          <mxGeometry x="590" y="210" width="130" height="200" as="geometry" />
        </mxCell>
        <mxCell id="XmDp-VsO-evtBJLwXCZc-49" value="&lt;ul style=&quot;font-size: 10px;&quot;&gt;&lt;li style=&quot;font-size: 10px;&quot;&gt;Проведение испытаний перед сдачей заказчику&lt;/li&gt;&lt;li style=&quot;font-size: 10px;&quot;&gt;Проверка соответствия системы требованиям и стандартам&lt;/li&gt;&lt;/ul&gt;" style="text;strokeColor=none;fillColor=none;html=1;whiteSpace=wrap;verticalAlign=middle;overflow=hidden;fontSize=10;align=left;" parent="1" vertex="1">
          <mxGeometry x="700" y="260" width="130" height="130" as="geometry" />
        </mxCell>
        <mxCell id="XmDp-VsO-evtBJLwXCZc-50" value="&lt;ul style=&quot;font-size: 10px;&quot;&gt;&lt;li style=&quot;font-size: 10px;&quot;&gt;Подготовка документации&amp;nbsp;&lt;/li&gt;&lt;li style=&quot;font-size: 10px;&quot;&gt;Прохождение сертификационных испытаний&lt;/li&gt;&lt;/ul&gt;" style="text;strokeColor=none;fillColor=none;html=1;whiteSpace=wrap;verticalAlign=middle;overflow=hidden;fontSize=10;align=left;" parent="1" vertex="1">
          <mxGeometry x="810" y="260" width="130" height="90" as="geometry" />
        </mxCell>
        <mxCell id="XmDp-VsO-evtBJLwXCZc-51" value="" style="endArrow=none;html=1;rounded=0;" parent="1" edge="1">
          <mxGeometry width="50" height="50" relative="1" as="geometry">
            <mxPoint x="-140" y="180" as="sourcePoint" />
            <mxPoint x="200" y="180" as="targetPoint" />
          </mxGeometry>
        </mxCell>
        <mxCell id="XmDp-VsO-evtBJLwXCZc-52" value="" style="endArrow=none;html=1;rounded=0;" parent="1" edge="1">
          <mxGeometry width="50" height="50" relative="1" as="geometry">
            <mxPoint x="310" y="180" as="sourcePoint" />
            <mxPoint x="440" y="180" as="targetPoint" />
          </mxGeometry>
        </mxCell>
        <mxCell id="XmDp-VsO-evtBJLwXCZc-53" value="" style="endArrow=none;html=1;rounded=0;" parent="1" edge="1">
          <mxGeometry width="50" height="50" relative="1" as="geometry">
            <mxPoint x="560" y="180" as="sourcePoint" />
            <mxPoint x="900" y="180" as="targetPoint" />
          </mxGeometry>
        </mxCell>
        <mxCell id="XmDp-VsO-evtBJLwXCZc-54" value="" style="endArrow=none;html=1;rounded=0;" parent="1" edge="1">
          <mxGeometry width="50" height="50" relative="1" as="geometry">
            <mxPoint x="740" y="180" as="sourcePoint" />
            <mxPoint x="740" y="160" as="targetPoint" />
          </mxGeometry>
        </mxCell>
        <mxCell id="XmDp-VsO-evtBJLwXCZc-55" value="" style="endArrow=none;html=1;rounded=0;" parent="1" edge="1">
          <mxGeometry width="50" height="50" relative="1" as="geometry">
            <mxPoint x="560" y="190" as="sourcePoint" />
            <mxPoint x="560" y="180" as="targetPoint" />
          </mxGeometry>
        </mxCell>
        <mxCell id="XmDp-VsO-evtBJLwXCZc-56" value="" style="endArrow=none;html=1;rounded=0;exitX=0.615;exitY=0.05;exitDx=0;exitDy=0;exitPerimeter=0;" parent="1" source="XmDp-VsO-evtBJLwXCZc-41" edge="1">
          <mxGeometry width="50" height="50" relative="1" as="geometry">
            <mxPoint x="510" y="290" as="sourcePoint" />
            <mxPoint x="560" y="240" as="targetPoint" />
          </mxGeometry>
        </mxCell>
        <mxCell id="XmDp-VsO-evtBJLwXCZc-57" value="" style="endArrow=none;html=1;rounded=0;exitX=0.615;exitY=0.05;exitDx=0;exitDy=0;exitPerimeter=0;" parent="1" edge="1">
          <mxGeometry width="50" height="50" relative="1" as="geometry">
            <mxPoint x="670" y="260" as="sourcePoint" />
            <mxPoint x="670" y="240" as="targetPoint" />
          </mxGeometry>
        </mxCell>
        <mxCell id="XmDp-VsO-evtBJLwXCZc-62" value="" style="endArrow=none;html=1;rounded=0;" parent="1" edge="1">
          <mxGeometry width="50" height="50" relative="1" as="geometry">
            <mxPoint x="780" y="260" as="sourcePoint" />
            <mxPoint x="780" y="240" as="targetPoint" />
          </mxGeometry>
        </mxCell>
        <mxCell id="XmDp-VsO-evtBJLwXCZc-63" value="" style="endArrow=none;html=1;rounded=0;entryX=0.5;entryY=1;entryDx=0;entryDy=0;exitX=0.612;exitY=0.007;exitDx=0;exitDy=0;exitPerimeter=0;" parent="1" source="XmDp-VsO-evtBJLwXCZc-50" target="XmDp-VsO-evtBJLwXCZc-19" edge="1">
          <mxGeometry width="50" height="50" relative="1" as="geometry">
            <mxPoint x="790" y="270" as="sourcePoint" />
            <mxPoint x="790" y="250" as="targetPoint" />
          </mxGeometry>
        </mxCell>
        <mxCell id="XmDp-VsO-evtBJLwXCZc-64" value="" style="endArrow=none;html=1;rounded=0;" parent="1" edge="1">
          <mxGeometry width="50" height="50" relative="1" as="geometry">
            <mxPoint x="429.76" y="260" as="sourcePoint" />
            <mxPoint x="429.76" y="240" as="targetPoint" />
          </mxGeometry>
        </mxCell>
        <mxCell id="XmDp-VsO-evtBJLwXCZc-65" value="" style="endArrow=none;html=1;rounded=0;" parent="1" edge="1">
          <mxGeometry width="50" height="50" relative="1" as="geometry">
            <mxPoint x="319.76" y="260" as="sourcePoint" />
            <mxPoint x="319.76" y="240" as="targetPoint" />
          </mxGeometry>
        </mxCell>
        <mxCell id="XmDp-VsO-evtBJLwXCZc-66" value="" style="endArrow=none;html=1;rounded=0;" parent="1" edge="1">
          <mxGeometry width="50" height="50" relative="1" as="geometry">
            <mxPoint x="380" y="180" as="sourcePoint" />
            <mxPoint x="380" y="160" as="targetPoint" />
          </mxGeometry>
        </mxCell>
        <mxCell id="XmDp-VsO-evtBJLwXCZc-67" value="" style="endArrow=none;html=1;rounded=0;" parent="1" edge="1">
          <mxGeometry width="50" height="50" relative="1" as="geometry">
            <mxPoint x="670" y="190" as="sourcePoint" />
            <mxPoint x="670" y="180" as="targetPoint" />
          </mxGeometry>
        </mxCell>
        <mxCell id="XmDp-VsO-evtBJLwXCZc-68" value="" style="endArrow=none;html=1;rounded=0;exitX=0.5;exitY=0;exitDx=0;exitDy=0;" parent="1" source="XmDp-VsO-evtBJLwXCZc-18" edge="1">
          <mxGeometry width="50" height="50" relative="1" as="geometry">
            <mxPoint x="680" y="200" as="sourcePoint" />
            <mxPoint x="780" y="180" as="targetPoint" />
          </mxGeometry>
        </mxCell>
        <mxCell id="XmDp-VsO-evtBJLwXCZc-69" value="" style="endArrow=none;html=1;rounded=0;" parent="1" edge="1">
          <mxGeometry width="50" height="50" relative="1" as="geometry">
            <mxPoint x="900" y="190" as="sourcePoint" />
            <mxPoint x="900" y="180" as="targetPoint" />
          </mxGeometry>
        </mxCell>
        <mxCell id="XmDp-VsO-evtBJLwXCZc-70" value="" style="endArrow=none;html=1;rounded=0;" parent="1" edge="1">
          <mxGeometry width="50" height="50" relative="1" as="geometry">
            <mxPoint x="440" y="190" as="sourcePoint" />
            <mxPoint x="440" y="180" as="targetPoint" />
          </mxGeometry>
        </mxCell>
        <mxCell id="XmDp-VsO-evtBJLwXCZc-71" value="" style="endArrow=none;html=1;rounded=0;" parent="1" edge="1">
          <mxGeometry width="50" height="50" relative="1" as="geometry">
            <mxPoint x="310" y="180" as="sourcePoint" />
            <mxPoint x="310" y="190" as="targetPoint" />
          </mxGeometry>
        </mxCell>
        <mxCell id="XmDp-VsO-evtBJLwXCZc-72" value="" style="endArrow=none;html=1;rounded=0;exitX=0.5;exitY=1;exitDx=0;exitDy=0;" parent="1" source="XmDp-VsO-evtBJLwXCZc-2" edge="1">
          <mxGeometry width="50" height="50" relative="1" as="geometry">
            <mxPoint x="460" y="210" as="sourcePoint" />
            <mxPoint x="30" y="180" as="targetPoint" />
          </mxGeometry>
        </mxCell>
        <mxCell id="XmDp-VsO-evtBJLwXCZc-73" value="" style="endArrow=none;html=1;rounded=0;exitX=0.5;exitY=1;exitDx=0;exitDy=0;" parent="1" source="XmDp-VsO-evtBJLwXCZc-9" edge="1">
          <mxGeometry width="50" height="50" relative="1" as="geometry">
            <mxPoint x="40" y="170" as="sourcePoint" />
            <mxPoint x="-140" y="260" as="targetPoint" />
          </mxGeometry>
        </mxCell>
        <mxCell id="XmDp-VsO-evtBJLwXCZc-74" value="" style="endArrow=none;html=1;rounded=0;" parent="1" edge="1">
          <mxGeometry width="50" height="50" relative="1" as="geometry">
            <mxPoint x="-40" y="260" as="sourcePoint" />
            <mxPoint x="-40" y="240" as="targetPoint" />
          </mxGeometry>
        </mxCell>
        <mxCell id="XmDp-VsO-evtBJLwXCZc-76" value="" style="endArrow=none;html=1;rounded=0;" parent="1" source="XmDp-VsO-evtBJLwXCZc-9" edge="1">
          <mxGeometry width="50" height="50" relative="1" as="geometry">
            <mxPoint x="-190" y="230" as="sourcePoint" />
            <mxPoint x="-140" y="180" as="targetPoint" />
          </mxGeometry>
        </mxCell>
        <mxCell id="XmDp-VsO-evtBJLwXCZc-77" value="" style="endArrow=none;html=1;rounded=0;exitX=0.399;exitY=-0.03;exitDx=0;exitDy=0;exitPerimeter=0;" parent="1" source="XmDp-VsO-evtBJLwXCZc-11" edge="1">
          <mxGeometry width="50" height="50" relative="1" as="geometry">
            <mxPoint x="-130" y="200" as="sourcePoint" />
            <mxPoint x="-40" y="180" as="targetPoint" />
          </mxGeometry>
        </mxCell>
        <mxCell id="XmDp-VsO-evtBJLwXCZc-78" value="" style="endArrow=none;html=1;rounded=0;exitX=0.5;exitY=0;exitDx=0;exitDy=0;" parent="1" source="XmDp-VsO-evtBJLwXCZc-12" edge="1">
          <mxGeometry width="50" height="50" relative="1" as="geometry">
            <mxPoint x="-120" y="210" as="sourcePoint" />
            <mxPoint x="80" y="180" as="targetPoint" />
          </mxGeometry>
        </mxCell>
        <mxCell id="XmDp-VsO-evtBJLwXCZc-79" value="" style="endArrow=none;html=1;rounded=0;" parent="1" edge="1">
          <mxGeometry width="50" height="50" relative="1" as="geometry">
            <mxPoint x="200" y="190" as="sourcePoint" />
            <mxPoint x="200" y="180" as="targetPoint" />
            <Array as="points">
              <mxPoint x="200" y="190" />
            </Array>
          </mxGeometry>
        </mxCell>
        <mxCell id="XmDp-VsO-evtBJLwXCZc-80" value="" style="endArrow=none;html=1;rounded=0;" parent="1" edge="1">
          <mxGeometry width="50" height="50" relative="1" as="geometry">
            <mxPoint x="79.75999999999999" y="260" as="sourcePoint" />
            <mxPoint x="79.75999999999999" y="240" as="targetPoint" />
          </mxGeometry>
        </mxCell>
        <mxCell id="XmDp-VsO-evtBJLwXCZc-82" value="" style="endArrow=none;html=1;rounded=0;" parent="1" edge="1">
          <mxGeometry width="50" height="50" relative="1" as="geometry">
            <mxPoint x="200" y="240" as="sourcePoint" />
            <mxPoint x="200" y="260" as="targetPoint" />
          </mxGeometry>
        </mxCell>
        <mxCell id="IIutb8Ob4Y_4vp3zWTY3-64" value="&lt;font style=&quot;vertical-align: inherit; font-size: 20px;&quot;&gt;&lt;font style=&quot;vertical-align: inherit; font-size: 20px;&quot;&gt;&lt;font style=&quot;vertical-align: inherit; font-size: 20px;&quot;&gt;&lt;font style=&quot;vertical-align: inherit; font-size: 20px;&quot;&gt;Разработать встраиваемый модуль для умной парковки ТЦ с использованием IoT&lt;/font&gt;&lt;/font&gt;&lt;/font&gt;&lt;/font&gt;" style="rounded=0;whiteSpace=wrap;html=1;fontSize=20;fillColor=#d5e8d4;strokeColor=#82b366;fontStyle=0" vertex="1" parent="1">
          <mxGeometry x="140" y="594" width="500" height="60" as="geometry" />
        </mxCell>
        <mxCell id="IIutb8Ob4Y_4vp3zWTY3-65" value="&lt;font style=&quot;vertical-align: inherit; font-size: 18px;&quot;&gt;&lt;font style=&quot;vertical-align: inherit; font-size: 18px;&quot;&gt;Этап 1. MVP&lt;/font&gt;&lt;/font&gt;" style="rounded=0;whiteSpace=wrap;html=1;fontSize=18;fillColor=#d5e8d4;strokeColor=#94CC74;" vertex="1" parent="1">
          <mxGeometry x="-80" y="694" width="280" height="40" as="geometry" />
        </mxCell>
        <mxCell id="IIutb8Ob4Y_4vp3zWTY3-66" value="&lt;font style=&quot;vertical-align: inherit; font-size: 18px;&quot;&gt;&lt;font style=&quot;vertical-align: inherit; font-size: 18px;&quot;&gt;Этап 2. Разработка&lt;/font&gt;&lt;/font&gt;" style="rounded=0;whiteSpace=wrap;html=1;fontSize=18;fillColor=#d5e8d4;strokeColor=#94CC74;" vertex="1" parent="1">
          <mxGeometry x="260" y="694" width="280" height="40" as="geometry" />
        </mxCell>
        <mxCell id="IIutb8Ob4Y_4vp3zWTY3-67" value="&lt;font style=&quot;vertical-align: inherit; font-size: 18px;&quot;&gt;&lt;font style=&quot;vertical-align: inherit; font-size: 18px;&quot;&gt;&lt;font style=&quot;vertical-align: inherit; font-size: 18px;&quot;&gt;&lt;font style=&quot;vertical-align: inherit; font-size: 18px;&quot;&gt;Этап 3. Испытания&lt;/font&gt;&lt;/font&gt;&lt;/font&gt;&lt;/font&gt;" style="rounded=0;whiteSpace=wrap;html=1;fontSize=18;fillColor=#d5e8d4;strokeColor=#94CC74;" vertex="1" parent="1">
          <mxGeometry x="610" y="694" width="280" height="40" as="geometry" />
        </mxCell>
        <mxCell id="IIutb8Ob4Y_4vp3zWTY3-68" value="" style="endArrow=none;html=1;rounded=0;fillColor=#d5e8d4;strokeColor=#000000;" edge="1" parent="1">
          <mxGeometry width="50" height="50" relative="1" as="geometry">
            <mxPoint x="60" y="674" as="sourcePoint" />
            <mxPoint x="625" y="674" as="targetPoint" />
          </mxGeometry>
        </mxCell>
        <mxCell id="IIutb8Ob4Y_4vp3zWTY3-69" value="" style="endArrow=none;html=1;rounded=0;exitX=0.5;exitY=0;exitDx=0;exitDy=0;" edge="1" parent="1" source="IIutb8Ob4Y_4vp3zWTY3-66">
          <mxGeometry width="50" height="50" relative="1" as="geometry">
            <mxPoint x="345" y="704" as="sourcePoint" />
            <mxPoint x="400" y="654" as="targetPoint" />
          </mxGeometry>
        </mxCell>
        <mxCell id="IIutb8Ob4Y_4vp3zWTY3-70" value="" style="endArrow=none;html=1;rounded=0;exitX=0.5;exitY=0;exitDx=0;exitDy=0;fillColor=#d5e8d4;strokeColor=#000000;" edge="1" parent="1" source="IIutb8Ob4Y_4vp3zWTY3-65">
          <mxGeometry width="50" height="50" relative="1" as="geometry">
            <mxPoint x="95" y="724" as="sourcePoint" />
            <mxPoint x="60" y="674" as="targetPoint" />
          </mxGeometry>
        </mxCell>
        <mxCell id="IIutb8Ob4Y_4vp3zWTY3-71" value="" style="endArrow=none;html=1;rounded=0;entryX=0.554;entryY=0.015;entryDx=0;entryDy=0;entryPerimeter=0;fillColor=#d5e8d4;strokeColor=#000000;" edge="1" parent="1" target="IIutb8Ob4Y_4vp3zWTY3-67">
          <mxGeometry width="50" height="50" relative="1" as="geometry">
            <mxPoint x="625" y="674" as="sourcePoint" />
            <mxPoint x="765" y="690" as="targetPoint" />
            <Array as="points">
              <mxPoint x="765" y="674" />
            </Array>
          </mxGeometry>
        </mxCell>
        <mxCell id="IIutb8Ob4Y_4vp3zWTY3-105" value="" style="endArrow=none;html=1;rounded=0;" edge="1" parent="1">
          <mxGeometry width="50" height="50" relative="1" as="geometry">
            <mxPoint x="765" y="754" as="sourcePoint" />
            <mxPoint x="765" y="734" as="targetPoint" />
          </mxGeometry>
        </mxCell>
        <mxCell id="IIutb8Ob4Y_4vp3zWTY3-113" value="" style="endArrow=none;html=1;rounded=0;" edge="1" parent="1">
          <mxGeometry width="50" height="50" relative="1" as="geometry">
            <mxPoint x="399.58" y="754" as="sourcePoint" />
            <mxPoint x="399.58" y="734" as="targetPoint" />
          </mxGeometry>
        </mxCell>
        <mxCell id="IIutb8Ob4Y_4vp3zWTY3-119" value="" style="endArrow=none;html=1;rounded=0;exitX=0.5;exitY=1;exitDx=0;exitDy=0;entryX=0.5;entryY=0.054;entryDx=0;entryDy=0;entryPerimeter=0;" edge="1" parent="1" source="IIutb8Ob4Y_4vp3zWTY3-65" target="IIutb8Ob4Y_4vp3zWTY3-140">
          <mxGeometry width="50" height="50" relative="1" as="geometry">
            <mxPoint x="485" y="784" as="sourcePoint" />
            <mxPoint x="60" y="750" as="targetPoint" />
          </mxGeometry>
        </mxCell>
        <mxCell id="IIutb8Ob4Y_4vp3zWTY3-154" value="" style="group;fontSize=14;labelBackgroundColor=none;fillColor=default;" vertex="1" connectable="0" parent="1">
          <mxGeometry x="-80" y="753" width="280" height="407" as="geometry" />
        </mxCell>
        <mxCell id="IIutb8Ob4Y_4vp3zWTY3-133" value="" style="rounded=0;whiteSpace=wrap;html=1;fontSize=14;labelBackgroundColor=none;fillColor=default;" vertex="1" parent="IIutb8Ob4Y_4vp3zWTY3-154">
          <mxGeometry width="280" height="407" as="geometry" />
        </mxCell>
        <mxCell id="IIutb8Ob4Y_4vp3zWTY3-140" value="Определение и анализ предметной области" style="text;strokeColor=default;fillColor=default;align=left;verticalAlign=middle;spacingLeft=4;spacingRight=4;overflow=hidden;points=[[0,0.5],[1,0.5]];portConstraint=eastwest;rotatable=0;whiteSpace=wrap;html=1;fontSize=14;labelBackgroundColor=none;" vertex="1" parent="IIutb8Ob4Y_4vp3zWTY3-154">
          <mxGeometry width="280" height="37" as="geometry" />
        </mxCell>
        <mxCell id="IIutb8Ob4Y_4vp3zWTY3-142" value="Выбор схемы" style="text;strokeColor=default;fillColor=default;align=left;verticalAlign=middle;spacingLeft=4;spacingRight=4;overflow=hidden;points=[[0,0.5],[1,0.5]];portConstraint=eastwest;rotatable=0;whiteSpace=wrap;html=1;fontSize=14;labelBackgroundColor=none;" vertex="1" parent="IIutb8Ob4Y_4vp3zWTY3-154">
          <mxGeometry y="37" width="280" height="37" as="geometry" />
        </mxCell>
        <mxCell id="IIutb8Ob4Y_4vp3zWTY3-143" value="Создание ТЗ" style="text;strokeColor=default;fillColor=default;align=left;verticalAlign=middle;spacingLeft=4;spacingRight=4;overflow=hidden;points=[[0,0.5],[1,0.5]];portConstraint=eastwest;rotatable=0;whiteSpace=wrap;html=1;fontSize=14;labelBackgroundColor=none;" vertex="1" parent="IIutb8Ob4Y_4vp3zWTY3-154">
          <mxGeometry y="74" width="280" height="37" as="geometry" />
        </mxCell>
        <mxCell id="IIutb8Ob4Y_4vp3zWTY3-144" value="Схемотехника MVP" style="text;strokeColor=default;fillColor=default;align=left;verticalAlign=middle;spacingLeft=4;spacingRight=4;overflow=hidden;points=[[0,0.5],[1,0.5]];portConstraint=eastwest;rotatable=0;whiteSpace=wrap;html=1;fontSize=14;labelBackgroundColor=none;" vertex="1" parent="IIutb8Ob4Y_4vp3zWTY3-154">
          <mxGeometry y="111" width="280" height="37" as="geometry" />
        </mxCell>
        <mxCell id="IIutb8Ob4Y_4vp3zWTY3-145" value="Топология" style="text;strokeColor=default;fillColor=default;align=left;verticalAlign=middle;spacingLeft=4;spacingRight=4;overflow=hidden;points=[[0,0.5],[1,0.5]];portConstraint=eastwest;rotatable=0;whiteSpace=wrap;html=1;fontSize=14;labelBackgroundColor=none;" vertex="1" parent="IIutb8Ob4Y_4vp3zWTY3-154">
          <mxGeometry y="148" width="280" height="37" as="geometry" />
        </mxCell>
        <mxCell id="IIutb8Ob4Y_4vp3zWTY3-146" value="Комплектующие" style="text;strokeColor=default;fillColor=default;align=left;verticalAlign=middle;spacingLeft=4;spacingRight=4;overflow=hidden;points=[[0,0.5],[1,0.5]];portConstraint=eastwest;rotatable=0;whiteSpace=wrap;html=1;fontSize=14;labelBackgroundColor=none;" vertex="1" parent="IIutb8Ob4Y_4vp3zWTY3-154">
          <mxGeometry y="185" width="280" height="37" as="geometry" />
        </mxCell>
        <mxCell id="IIutb8Ob4Y_4vp3zWTY3-147" value="Корпус" style="text;strokeColor=default;fillColor=default;align=left;verticalAlign=middle;spacingLeft=4;spacingRight=4;overflow=hidden;points=[[0,0.5],[1,0.5]];portConstraint=eastwest;rotatable=0;whiteSpace=wrap;html=1;fontSize=14;labelBackgroundColor=none;" vertex="1" parent="IIutb8Ob4Y_4vp3zWTY3-154">
          <mxGeometry y="222" width="280" height="37" as="geometry" />
        </mxCell>
        <mxCell id="IIutb8Ob4Y_4vp3zWTY3-148" value="Разработка прототипа мобильного ПО" style="text;strokeColor=default;fillColor=default;align=left;verticalAlign=middle;spacingLeft=4;spacingRight=4;overflow=hidden;points=[[0,0.5],[1,0.5]];portConstraint=eastwest;rotatable=0;whiteSpace=wrap;html=1;fontSize=14;labelBackgroundColor=none;" vertex="1" parent="IIutb8Ob4Y_4vp3zWTY3-154">
          <mxGeometry y="259" width="280" height="37" as="geometry" />
        </mxCell>
        <mxCell id="IIutb8Ob4Y_4vp3zWTY3-149" value="Интеграция датчиков и мобильного приложения" style="text;strokeColor=default;fillColor=default;align=left;verticalAlign=middle;spacingLeft=4;spacingRight=4;overflow=hidden;points=[[0,0.5],[1,0.5]];portConstraint=eastwest;rotatable=0;whiteSpace=wrap;html=1;fontSize=14;labelBackgroundColor=none;" vertex="1" parent="IIutb8Ob4Y_4vp3zWTY3-154">
          <mxGeometry y="296" width="280" height="37" as="geometry" />
        </mxCell>
        <mxCell id="IIutb8Ob4Y_4vp3zWTY3-150" value="Тестирование и доработка MVP" style="text;strokeColor=default;fillColor=default;align=left;verticalAlign=middle;spacingLeft=4;spacingRight=4;overflow=hidden;points=[[0,0.5],[1,0.5]];portConstraint=eastwest;rotatable=0;whiteSpace=wrap;html=1;fontSize=14;labelBackgroundColor=none;" vertex="1" parent="IIutb8Ob4Y_4vp3zWTY3-154">
          <mxGeometry y="333" width="280" height="37" as="geometry" />
        </mxCell>
        <mxCell id="IIutb8Ob4Y_4vp3zWTY3-151" value="Анализ результатов" style="text;strokeColor=default;fillColor=default;align=left;verticalAlign=middle;spacingLeft=4;spacingRight=4;overflow=hidden;points=[[0,0.5],[1,0.5]];portConstraint=eastwest;rotatable=0;whiteSpace=wrap;html=1;fontSize=14;labelBackgroundColor=none;" vertex="1" parent="IIutb8Ob4Y_4vp3zWTY3-154">
          <mxGeometry y="370" width="280" height="37" as="geometry" />
        </mxCell>
        <mxCell id="IIutb8Ob4Y_4vp3zWTY3-185" value="Изготовление изделия" style="text;strokeColor=default;fillColor=default;align=left;verticalAlign=middle;spacingLeft=4;spacingRight=4;overflow=hidden;points=[[0,0.5],[1,0.5]];portConstraint=eastwest;rotatable=0;whiteSpace=wrap;html=1;fontSize=14;labelBackgroundColor=none;" vertex="1" parent="1">
          <mxGeometry x="260" y="790" width="280" height="37" as="geometry" />
        </mxCell>
        <mxCell id="IIutb8Ob4Y_4vp3zWTY3-184" value="Конструкторская документация" style="text;strokeColor=default;fillColor=default;align=left;verticalAlign=middle;spacingLeft=4;spacingRight=4;overflow=hidden;points=[[0,0.5],[1,0.5]];portConstraint=eastwest;rotatable=0;whiteSpace=wrap;html=1;fontSize=14;labelBackgroundColor=none;" vertex="1" parent="1">
          <mxGeometry x="260" y="753" width="280" height="37" as="geometry" />
        </mxCell>
        <mxCell id="IIutb8Ob4Y_4vp3zWTY3-226" value="Разработка мобильного ПО" style="text;strokeColor=default;fillColor=default;align=left;verticalAlign=middle;spacingLeft=4;spacingRight=4;overflow=hidden;points=[[0,0.5],[1,0.5]];portConstraint=eastwest;rotatable=0;whiteSpace=wrap;html=1;fontSize=14;labelBackgroundColor=none;" vertex="1" parent="1">
          <mxGeometry x="260" y="1030" width="280" height="37" as="geometry" />
        </mxCell>
        <mxCell id="IIutb8Ob4Y_4vp3zWTY3-229" value="Интеграция продуктов" style="text;strokeColor=default;fillColor=default;align=left;verticalAlign=middle;spacingLeft=4;spacingRight=4;overflow=hidden;points=[[0,0.5],[1,0.5]];portConstraint=eastwest;rotatable=0;whiteSpace=wrap;html=1;fontSize=14;labelBackgroundColor=none;" vertex="1" parent="1">
          <mxGeometry x="260" y="1170" width="280" height="37" as="geometry" />
        </mxCell>
        <mxCell id="IIutb8Ob4Y_4vp3zWTY3-230" value="Предварительные испытания и тестирование" style="text;strokeColor=default;fillColor=default;align=left;verticalAlign=middle;spacingLeft=4;spacingRight=4;overflow=hidden;points=[[0,0.5],[1,0.5]];portConstraint=eastwest;rotatable=0;whiteSpace=wrap;html=1;fontSize=14;labelBackgroundColor=none;" vertex="1" parent="1">
          <mxGeometry x="260" y="1207" width="280" height="37" as="geometry" />
        </mxCell>
        <mxCell id="IIutb8Ob4Y_4vp3zWTY3-231" value="Составление документации" style="text;strokeColor=default;fillColor=default;align=left;verticalAlign=middle;spacingLeft=4;spacingRight=4;overflow=hidden;points=[[0,0.5],[1,0.5]];portConstraint=eastwest;rotatable=0;whiteSpace=wrap;html=1;fontSize=14;labelBackgroundColor=none;" vertex="1" parent="1">
          <mxGeometry x="260" y="1244" width="280" height="37" as="geometry" />
        </mxCell>
        <mxCell id="IIutb8Ob4Y_4vp3zWTY3-232" value="Производство пробной партии" style="text;strokeColor=default;fillColor=default;align=left;verticalAlign=middle;spacingLeft=4;spacingRight=4;overflow=hidden;points=[[0,0.5],[1,0.5]];portConstraint=eastwest;rotatable=0;whiteSpace=wrap;html=1;fontSize=14;labelBackgroundColor=none;" vertex="1" parent="1">
          <mxGeometry x="260" y="1281" width="280" height="36" as="geometry" />
        </mxCell>
        <mxCell id="IIutb8Ob4Y_4vp3zWTY3-214" value="Проведение испытаний" style="text;strokeColor=default;fillColor=default;align=left;verticalAlign=middle;spacingLeft=4;spacingRight=4;overflow=hidden;points=[[0,0.5],[1,0.5]];portConstraint=eastwest;rotatable=0;whiteSpace=wrap;html=1;fontSize=14;labelBackgroundColor=none;" vertex="1" parent="1">
          <mxGeometry x="612" y="753" width="280" height="37" as="geometry" />
        </mxCell>
        <mxCell id="IIutb8Ob4Y_4vp3zWTY3-215" value="Доработка изделия" style="text;strokeColor=default;fillColor=default;align=left;verticalAlign=middle;spacingLeft=4;spacingRight=4;overflow=hidden;points=[[0,0.5],[1,0.5]];portConstraint=eastwest;rotatable=0;whiteSpace=wrap;html=1;fontSize=14;labelBackgroundColor=none;" vertex="1" parent="1">
          <mxGeometry x="612" y="790" width="280" height="37" as="geometry" />
        </mxCell>
        <mxCell id="IIutb8Ob4Y_4vp3zWTY3-216" value="Доработка мобильного приложения" style="text;strokeColor=default;fillColor=default;align=left;verticalAlign=middle;spacingLeft=4;spacingRight=4;overflow=hidden;points=[[0,0.5],[1,0.5]];portConstraint=eastwest;rotatable=0;whiteSpace=wrap;html=1;fontSize=14;labelBackgroundColor=none;" vertex="1" parent="1">
          <mxGeometry x="612" y="827" width="280" height="37" as="geometry" />
        </mxCell>
        <mxCell id="IIutb8Ob4Y_4vp3zWTY3-217" value="Сдаточные испытания" style="text;strokeColor=default;fillColor=default;align=left;verticalAlign=middle;spacingLeft=4;spacingRight=4;overflow=hidden;points=[[0,0.5],[1,0.5]];portConstraint=eastwest;rotatable=0;whiteSpace=wrap;html=1;fontSize=14;labelBackgroundColor=none;" vertex="1" parent="1">
          <mxGeometry x="612" y="864" width="280" height="37" as="geometry" />
        </mxCell>
        <mxCell id="IIutb8Ob4Y_4vp3zWTY3-218" value="Сертификация" style="text;strokeColor=default;fillColor=default;align=left;verticalAlign=middle;spacingLeft=4;spacingRight=4;overflow=hidden;points=[[0,0.5],[1,0.5]];portConstraint=eastwest;rotatable=0;whiteSpace=wrap;html=1;fontSize=14;labelBackgroundColor=none;" vertex="1" parent="1">
          <mxGeometry x="612" y="901" width="280" height="37" as="geometry" />
        </mxCell>
        <mxCell id="IIutb8Ob4Y_4vp3zWTY3-219" value="Регистрация прав и патентов" style="text;strokeColor=default;fillColor=default;align=left;verticalAlign=middle;spacingLeft=4;spacingRight=4;overflow=hidden;points=[[0,0.5],[1,0.5]];portConstraint=eastwest;rotatable=0;whiteSpace=wrap;html=1;fontSize=14;labelBackgroundColor=none;" vertex="1" parent="1">
          <mxGeometry x="612" y="938" width="280" height="37" as="geometry" />
        </mxCell>
        <mxCell id="IIutb8Ob4Y_4vp3zWTY3-221" value="Упаковка" style="text;strokeColor=default;fillColor=default;align=left;verticalAlign=middle;spacingLeft=4;spacingRight=4;overflow=hidden;points=[[0,0.5],[1,0.5]];portConstraint=eastwest;rotatable=0;whiteSpace=wrap;html=1;fontSize=14;labelBackgroundColor=none;" vertex="1" parent="1">
          <mxGeometry x="612" y="975" width="280" height="37" as="geometry" />
        </mxCell>
        <mxCell id="IIutb8Ob4Y_4vp3zWTY3-222" value="Поставка заказчику" style="text;strokeColor=default;fillColor=default;align=left;verticalAlign=middle;spacingLeft=4;spacingRight=4;overflow=hidden;points=[[0,0.5],[1,0.5]];portConstraint=eastwest;rotatable=0;whiteSpace=wrap;html=1;fontSize=14;labelBackgroundColor=none;" vertex="1" parent="1">
          <mxGeometry x="612" y="1012" width="280" height="37" as="geometry" />
        </mxCell>
        <mxCell id="IIutb8Ob4Y_4vp3zWTY3-245" value="" style="group;dashed=1;" vertex="1" connectable="0" parent="1">
          <mxGeometry x="300" y="830" width="240" height="190" as="geometry" />
        </mxCell>
        <mxCell id="IIutb8Ob4Y_4vp3zWTY3-187" value="Комплектующие" style="text;strokeColor=default;fillColor=default;align=left;verticalAlign=middle;spacingLeft=4;spacingRight=4;overflow=hidden;points=[[0,0.5],[1,0.5]];portConstraint=eastwest;rotatable=0;whiteSpace=wrap;html=1;fontSize=14;labelBackgroundColor=none;dashed=1;" vertex="1" parent="IIutb8Ob4Y_4vp3zWTY3-245">
          <mxGeometry y="31.809954751131215" width="240.00000000000003" height="31.809954751131215" as="geometry" />
        </mxCell>
        <mxCell id="IIutb8Ob4Y_4vp3zWTY3-188" value="Печатная плата" style="text;strokeColor=default;fillColor=default;align=left;verticalAlign=middle;spacingLeft=4;spacingRight=4;overflow=hidden;points=[[0,0.5],[1,0.5]];portConstraint=eastwest;rotatable=0;whiteSpace=wrap;html=1;fontSize=14;labelBackgroundColor=none;dashed=1;" vertex="1" parent="IIutb8Ob4Y_4vp3zWTY3-245">
          <mxGeometry y="63.61990950226243" width="240.00000000000003" height="31.809954751131215" as="geometry" />
        </mxCell>
        <mxCell id="IIutb8Ob4Y_4vp3zWTY3-189" value="Корпус" style="text;strokeColor=default;fillColor=default;align=left;verticalAlign=middle;spacingLeft=4;spacingRight=4;overflow=hidden;points=[[0,0.5],[1,0.5]];portConstraint=eastwest;rotatable=0;whiteSpace=wrap;html=1;fontSize=14;labelBackgroundColor=none;dashed=1;" vertex="1" parent="IIutb8Ob4Y_4vp3zWTY3-245">
          <mxGeometry y="95.42986425339366" width="240.00000000000003" height="31.809954751131215" as="geometry" />
        </mxCell>
        <mxCell id="IIutb8Ob4Y_4vp3zWTY3-190" value="Сборка" style="text;strokeColor=default;fillColor=default;align=left;verticalAlign=middle;spacingLeft=4;spacingRight=4;overflow=hidden;points=[[0,0.5],[1,0.5]];portConstraint=eastwest;rotatable=0;whiteSpace=wrap;html=1;fontSize=14;labelBackgroundColor=none;dashed=1;" vertex="1" parent="IIutb8Ob4Y_4vp3zWTY3-245">
          <mxGeometry y="127.23981900452486" width="240.00000000000003" height="31.809954751131215" as="geometry" />
        </mxCell>
        <mxCell id="IIutb8Ob4Y_4vp3zWTY3-186" value="Схемотехника" style="text;strokeColor=default;fillColor=default;align=left;verticalAlign=middle;spacingLeft=4;spacingRight=4;overflow=hidden;points=[[0,0.5],[1,0.5]];portConstraint=eastwest;rotatable=0;whiteSpace=wrap;html=1;fontSize=14;labelBackgroundColor=none;dashed=1;" vertex="1" parent="IIutb8Ob4Y_4vp3zWTY3-245">
          <mxGeometry width="240.00000000000003" height="31.809954751131215" as="geometry" />
        </mxCell>
        <mxCell id="IIutb8Ob4Y_4vp3zWTY3-225" value="Беспроводная зарядка" style="text;strokeColor=default;fillColor=default;align=left;verticalAlign=middle;spacingLeft=4;spacingRight=4;overflow=hidden;points=[[0,0.5],[1,0.5]];portConstraint=eastwest;rotatable=0;whiteSpace=wrap;html=1;fontSize=14;labelBackgroundColor=none;dashed=1;" vertex="1" parent="IIutb8Ob4Y_4vp3zWTY3-245">
          <mxGeometry y="159.04977375565608" width="240.00000000000003" height="30.950226244343888" as="geometry" />
        </mxCell>
        <mxCell id="IIutb8Ob4Y_4vp3zWTY3-246" value="" style="endArrow=classic;html=1;rounded=0;entryX=-0.003;entryY=-0.105;entryDx=0;entryDy=0;entryPerimeter=0;exitX=0.035;exitY=1.046;exitDx=0;exitDy=0;exitPerimeter=0;strokeColor=#666666;" edge="1" parent="1" source="IIutb8Ob4Y_4vp3zWTY3-185" target="IIutb8Ob4Y_4vp3zWTY3-189">
          <mxGeometry width="50" height="50" relative="1" as="geometry">
            <mxPoint x="250" y="820" as="sourcePoint" />
            <mxPoint x="310" y="790" as="targetPoint" />
            <Array as="points">
              <mxPoint x="270" y="922" />
            </Array>
          </mxGeometry>
        </mxCell>
        <mxCell id="IIutb8Ob4Y_4vp3zWTY3-248" value="" style="group" vertex="1" connectable="0" parent="1">
          <mxGeometry x="300" y="1070" width="240" height="90" as="geometry" />
        </mxCell>
        <mxCell id="IIutb8Ob4Y_4vp3zWTY3-227" value="Frontend" style="text;strokeColor=default;fillColor=default;align=left;verticalAlign=middle;spacingLeft=4;spacingRight=4;overflow=hidden;points=[[0,0.5],[1,0.5]];portConstraint=eastwest;rotatable=0;whiteSpace=wrap;html=1;fontSize=14;labelBackgroundColor=none;dashed=1;" vertex="1" parent="IIutb8Ob4Y_4vp3zWTY3-248">
          <mxGeometry width="240" height="30.000000000000004" as="geometry" />
        </mxCell>
        <mxCell id="IIutb8Ob4Y_4vp3zWTY3-228" value="Backend" style="text;strokeColor=default;fillColor=default;align=left;verticalAlign=middle;spacingLeft=4;spacingRight=4;overflow=hidden;points=[[0,0.5],[1,0.5]];portConstraint=eastwest;rotatable=0;whiteSpace=wrap;html=1;fontSize=14;labelBackgroundColor=none;dashed=1;" vertex="1" parent="IIutb8Ob4Y_4vp3zWTY3-248">
          <mxGeometry y="30.000000000000004" width="240" height="30.000000000000004" as="geometry" />
        </mxCell>
        <mxCell id="IIutb8Ob4Y_4vp3zWTY3-247" value="Тестирование" style="text;strokeColor=default;fillColor=default;align=left;verticalAlign=middle;spacingLeft=4;spacingRight=4;overflow=hidden;points=[[0,0.5],[1,0.5]];portConstraint=eastwest;rotatable=0;whiteSpace=wrap;html=1;fontSize=14;labelBackgroundColor=none;dashed=1;" vertex="1" parent="IIutb8Ob4Y_4vp3zWTY3-248">
          <mxGeometry y="60.00000000000001" width="240" height="30.000000000000004" as="geometry" />
        </mxCell>
        <mxCell id="IIutb8Ob4Y_4vp3zWTY3-249" value="" style="endArrow=classic;html=1;rounded=0;exitX=0.035;exitY=1.046;exitDx=0;exitDy=0;exitPerimeter=0;strokeColor=#666666;" edge="1" parent="1">
          <mxGeometry width="50" height="50" relative="1" as="geometry">
            <mxPoint x="271" y="1067" as="sourcePoint" />
            <mxPoint x="300" y="1120" as="targetPoint" />
            <Array as="points">
              <mxPoint x="271" y="1120" />
            </Array>
          </mxGeometry>
        </mxCell>
      </root>
    </mxGraphModel>
  </diagram>
</mxfile>
